<?xml version="1.0"?>
<svg xmlns="http://www.w3.org/2000/svg" id="Layer_1" enable-background="new 0 0 50 56.002" height="512px" viewBox="0 0 50 56.002" width="512px" class=""><g><path d="m38.217 0c-3.968 0-7.54 2.986-8.332 6.876-.907 4.455 2.124 8.981 6.548 9.921 4.425.94 8.929-1.843 10.03-6.234.169-.674.253-1.369.253-2.064.001-4.686-3.812-8.499-8.499-8.499z" data-original="#000000" class="active-path" data-old_color="#000000" fill="#2CC157"/><path d="m1.057 41h47.885l-5.369-6.833c-2.95-3.754-4.574-8.452-4.574-13.226 0 0 0-1.971 0-1.973 0 .075-1.873-.032-2.025-.049-4.329-.504-7.934-3.78-8.959-8-.242-.994-.334-2.019-.277-3.04.01-.18.025-.359.045-.538.242-2.175 1.181-4.236 2.644-5.858.08-.088.151-.18.234-.266-1.26-.577-2.584-.951-3.952-1.115-4.042-.486-7.939.732-10.979 3.429-3.007 2.667-4.731 6.483-4.731 10.469v6.942c0 4.774-1.625 9.471-4.574 13.226z" data-original="#000000" class="active-path" data-old_color="#000000" fill="#2CC157"/><path d="m0 49h18 14 18v-6h-50z" data-original="#000000" class="active-path" data-old_color="#000000" fill="#2CC157"/><path d="m25 56c2.968 0 5.439-2.166 5.917-5h-11.833c.477 2.834 2.948 5 5.916 5z" data-original="#000000" class="active-path" data-old_color="#000000" fill="#2CC157"/></g> </svg>
