<?xml version="1.0"?>
<svg xmlns="http://www.w3.org/2000/svg" xmlns:xlink="http://www.w3.org/1999/xlink" version="1.1" id="Capa_1" x="0px" y="0px" viewBox="0 0 300 300" style="enable-background:new 0 0 300 300;" xml:space="preserve" width="512px" height="512px"><g><g>
	<path d="M99.293,300c-1.22-0.465-2.441-0.929-3.939-1.499c0-49.116,0-98.213,0-147.988   c-19.08,6.791-37.661,13.405-57.045,20.305c0-7.805-0.162-15.027,0.166-22.229c0.052-1.15,2.119-2.694,3.56-3.223   c15.463-5.664,30.893-11.45,46.544-16.551c5.591-1.822,7.951-4.465,6.935-10.197c-0.255-1.44-0.038-2.965-0.038-5.188   c-19.097,6.851-37.72,13.53-57.167,20.506c0-8.283-0.159-15.549,0.17-22.793c0.05-1.1,2.206-2.547,3.662-3.071   c16.433-5.914,32.913-11.699,49.4-17.465c2.321-0.812,4.026-1.539,4.006-4.683C95.361,57.283,95.353,28.642,95.293,0   c10,0,20,0,30,0c0.146,3.479,0.41,6.959,0.417,10.438c0.04,20.499,0.02,40.999,0.02,61.498c0,1.786,0,3.572,0,6.139   c30.883-11.156,60.988-22.032,91.594-33.089c0,7.676,0.225,14.674-0.187,21.635c-0.083,1.409-2.331,3.311-3.975,3.915   c-25.935,9.541-51.928,18.922-77.919,28.306c-10.515,3.796-10.528,3.759-9.006,16.177c30.284-10.922,60.37-21.771,91.063-32.842   c0,7.627,0.229,14.897-0.213,22.127c-0.079,1.293-2.767,2.898-4.546,3.543c-26.133,9.479-52.324,18.796-78.481,28.207   c-10.277,3.698-8.275,2.308-8.296,11.795c-0.084,37.999-0.035,75.997-0.035,113.996c0,1.968,0,3.936,0,5.901   c37.367-0.613,104.812-40.261,105.166-117.639c9.893,0,19.793,0,30.835,0c-0.971,8.817-1.304,17.619-2.98,26.158   c-13.035,66.404-64.793,114.586-131.636,122.908c-0.959,0.119-1.881,0.544-2.82,0.826C115.96,300,107.626,300,99.293,300   L99.293,300z" data-original="#030104" class="active-path" data-old_color="#030104" fill="#999999"/>
</g></g> </svg>
